<svg width="24" height="24" viewBox="0 0 24 24" fill="none" xmlns="http://www.w3.org/2000/svg">
<path d="M18 2.25H6C5.6023 2.25039 5.22099 2.40855 4.93977 2.68977C4.65855 2.97099 4.50039 3.3523 4.5 3.75V21C4.49985 21.1307 4.53389 21.2592 4.59873 21.3727C4.66357 21.4862 4.75696 21.5808 4.86963 21.647C4.98231 21.7133 5.11035 21.7489 5.24106 21.7504C5.37177 21.7519 5.50059 21.7192 5.61475 21.6555L12 18.1077L18.3853 21.6555C18.4994 21.7192 18.6282 21.7519 18.7589 21.7504C18.8896 21.7489 19.0177 21.7133 19.1304 21.647C19.243 21.5808 19.3364 21.4862 19.4013 21.3727C19.4661 21.2592 19.5001 21.1307 19.5 21V3.75C19.4996 3.3523 19.3414 2.97099 19.0602 2.68977C18.779 2.40855 18.3977 2.25039 18 2.25Z" fill="#262D35"/>
</svg>
