<svg viewBox="0 0 14 14" fill="none" xmlns="http://www.w3.org/2000/svg">
<path opacity="0.4" d="M13.2163 12.4081H8.78746C8.35535 12.4081 8.00391 12.7651 8.00391 13.204C8.00391 13.6438 8.35535 14 8.78746 14H13.2163C13.6484 14 13.9999 13.6438 13.9999 13.204C13.9999 12.7651 13.6484 12.4081 13.2163 12.4081Z" fill="white"/>
<path d="M5.68479 3.03637L9.88157 6.42755C9.98281 6.50865 10.0001 6.65748 9.92108 6.76115L4.94569 13.2442C4.63293 13.6447 4.17201 13.8713 3.67818 13.8796L0.96208 13.9131C0.817222 13.9147 0.690471 13.8144 0.657548 13.6706L0.0402537 10.9868C-0.066744 10.4935 0.0402537 9.98344 0.353016 9.59048L5.3531 3.0765C5.43376 2.97199 5.58274 2.9536 5.68479 3.03637Z" fill="white"/>
<path opacity="0.4" d="M11.7603 4.40645L10.9513 5.41645C10.8698 5.51929 10.7233 5.53601 10.622 5.45407C9.63849 4.65812 7.11993 2.61555 6.42115 2.04951C6.31909 1.96591 6.3051 1.81708 6.38741 1.71341L7.16767 0.744378C7.8755 -0.16696 9.11009 -0.250569 10.106 0.543716L11.25 1.45505C11.7192 1.82293 12.0319 2.30787 12.1389 2.81788C12.2624 3.3789 12.1307 3.92988 11.7603 4.40645Z" fill="white"/>
</svg>
