<svg width="18" height="18" viewBox="0 0 18 18" fill="none" xmlns="http://www.w3.org/2000/svg">
<g clip-path="url(#clip0_1_174)">
<path d="M11.4181 11.631L9.75835 15.1185C9.72695 15.1844 9.67997 15.2417 9.62147 15.2855C9.56297 15.3292 9.49471 15.358 9.42257 15.3695C9.35044 15.3809 9.2766 15.3746 9.20744 15.3512C9.13828 15.3277 9.07587 15.2877 9.0256 15.2347L6.3691 12.4305C6.29813 12.3557 6.20361 12.3075 6.10135 12.294L2.2711 11.793C2.19874 11.7835 2.12978 11.7565 2.07017 11.7143C2.01056 11.6722 1.96209 11.6162 1.92895 11.5512C1.89581 11.4862 1.87898 11.414 1.87992 11.341C1.88086 11.2681 1.89954 11.1964 1.93435 11.1322L3.78085 7.73924C3.82994 7.6485 3.84636 7.54365 3.82735 7.44224L3.1201 3.64499C3.10667 3.57312 3.11096 3.49905 3.13259 3.42921C3.15422 3.35936 3.19255 3.29584 3.24425 3.24414C3.29595 3.19244 3.35947 3.15411 3.42932 3.13248C3.49916 3.11085 3.57323 3.10656 3.6451 3.11999L7.44235 3.82724C7.54376 3.84625 7.64861 3.82983 7.73935 3.78074L11.1324 1.93424C11.1966 1.89942 11.2683 1.88076 11.3413 1.87986C11.4144 1.87896 11.4865 1.89585 11.5516 1.92907C11.6166 1.9623 11.6726 2.01086 11.7147 2.07056C11.7568 2.13026 11.7837 2.19931 11.7931 2.27174L12.2941 6.10124C12.3076 6.2035 12.3558 6.29802 12.4306 6.36899L15.2349 9.02549C15.2878 9.07576 15.3278 9.13817 15.3513 9.20733C15.3747 9.27649 15.381 9.35033 15.3696 9.42246C15.3581 9.4946 15.3293 9.56286 15.2856 9.62136C15.2419 9.67986 15.1845 9.72684 15.1186 9.75824L11.6311 11.418C11.5377 11.4624 11.4625 11.5376 11.4181 11.631ZM12.0159 13.0762L13.0764 12.0157L16.2586 15.1972L15.1974 16.2585L12.0159 13.0762Z" fill="#6C78E7"/>
</g>
<defs>
<clipPath id="clip0_1_174">
<rect width="18" height="18" fill="white"/>
</clipPath>
</defs>
</svg>
