<svg viewBox="0 0 20 20" fill="none" stroke="currentColor" xmlns="http://www.w3.org/2000/svg">
<path d="M7.1875 7.1875H15.3125" stroke="currentColor" stroke-width="1.5" stroke-linecap="round" stroke-linejoin="round"/>
<path d="M7.1875 10H15.3125" stroke="currentColor" stroke-width="1.5" stroke-linecap="round" stroke-linejoin="round"/>
<path d="M7.1875 12.8125H15.3125" stroke="currentColor" stroke-width="1.5" stroke-linecap="round" stroke-linejoin="round"/>
<path d="M2.5 16.25H16.875C17.2894 16.25 17.6868 16.0854 17.9799 15.7924C18.2729 15.4993 18.4375 15.1019 18.4375 14.6875V4.375C18.4375 4.20924 18.3717 4.05027 18.2544 3.93306C18.1372 3.81585 17.9783 3.75 17.8125 3.75H4.6875C4.52174 3.75 4.36277 3.81585 4.24556 3.93306C4.12835 4.05027 4.0625 4.20924 4.0625 4.375V14.6875C4.0625 15.1019 3.89788 15.4993 3.60485 15.7924C3.31183 16.0854 2.9144 16.25 2.5 16.25ZM2.5 16.25C2.0856 16.25 1.68817 16.0854 1.39515 15.7924C1.10212 15.4993 0.9375 15.1019 0.9375 14.6875V6.25" stroke="currentColor" stroke-width="1.5" stroke-linecap="round" stroke-linejoin="round"/>
</svg>
