<svg width="18" height="18" viewBox="0 0 18 18" fill="none" xmlns="http://www.w3.org/2000/svg">
<g clip-path="url(#clip0_1_188)">
<path d="M9 1.5C13.1415 1.5 16.5 4.4835 16.5 8.16675C16.4994 9.27166 16.0602 10.3311 15.2788 11.1123C14.4975 11.8936 13.4379 12.3326 12.333 12.333H10.8585C10.167 12.333 9.60825 12.8918 9.60825 13.5833C9.60825 13.8998 9.7335 14.1915 9.92475 14.4083C10.125 14.6333 10.2503 14.925 10.2503 15.2498C10.2503 15.942 9.675 16.5 9 16.5C4.8585 16.5 1.5 13.1415 1.5 9C1.5 4.8585 4.8585 1.5 9 1.5ZM5.625 9C5.92337 9 6.20952 8.88147 6.4205 8.6705C6.63147 8.45952 6.75 8.17337 6.75 7.875C6.75 7.57663 6.63147 7.29048 6.4205 7.0795C6.20952 6.86853 5.92337 6.75 5.625 6.75C5.32663 6.75 5.04048 6.86853 4.82951 7.0795C4.61853 7.29048 4.5 7.57663 4.5 7.875C4.5 8.17337 4.61853 8.45952 4.82951 8.6705C5.04048 8.88147 5.32663 9 5.625 9ZM12.375 9C12.6734 9 12.9595 8.88147 13.1705 8.6705C13.3815 8.45952 13.5 8.17337 13.5 7.875C13.5 7.57663 13.3815 7.29048 13.1705 7.0795C12.9595 6.86853 12.6734 6.75 12.375 6.75C12.0766 6.75 11.7905 6.86853 11.5795 7.0795C11.3685 7.29048 11.25 7.57663 11.25 7.875C11.25 8.17337 11.3685 8.45952 11.5795 8.6705C11.7905 8.88147 12.0766 9 12.375 9ZM9 6.75C9.29837 6.75 9.58452 6.63147 9.7955 6.4205C10.0065 6.20952 10.125 5.92337 10.125 5.625C10.125 5.32663 10.0065 5.04048 9.7955 4.8295C9.58452 4.61853 9.29837 4.5 9 4.5C8.70163 4.5 8.41548 4.61853 8.20451 4.8295C7.99353 5.04048 7.875 5.32663 7.875 5.625C7.875 5.92337 7.99353 6.20952 8.20451 6.4205C8.41548 6.63147 8.70163 6.75 9 6.75Z" fill="#EF5294"/>
</g>
<defs>
<clipPath id="clip0_1_188">
<rect width="18" height="18" fill="white"/>
</clipPath>
</defs>
</svg>
