<svg viewBox="0 0 20 17" fill="currentColor" xmlns="http://www.w3.org/2000/svg">
<path fill-rule="evenodd" clip-rule="evenodd" d="M1.3749 7.13525C6.74359 4.79619 10.3236 3.25415 12.1148 2.5091C17.2292 0.381857 18.2919 0.0123321 18.9846 0.0001301C19.1369 -0.00255358 19.4776 0.0352022 19.6982 0.214243C19.8845 0.365422 19.9358 0.569643 19.9603 0.712977C19.9848 0.856311 20.0154 1.18283 19.9911 1.43796C19.714 4.35 18.5147 11.4167 17.9046 14.6783C17.6465 16.0584 17.1382 16.5211 16.6461 16.5664C15.5766 16.6648 14.7645 15.8596 13.7287 15.1806C12.1078 14.1181 11.1921 13.4567 9.61879 12.4199C7.80053 11.2217 8.97923 10.5631 10.0154 9.48687C10.2866 9.20521 14.9987 4.91921 15.0899 4.5304C15.1013 4.48177 15.1119 4.30051 15.0042 4.2048C14.8965 4.10909 14.7376 4.14182 14.6229 4.16785C14.4604 4.20475 11.871 5.91622 6.85486 9.30225C6.11988 9.80695 5.45416 10.0529 4.8577 10.04C4.20015 10.0258 2.93528 9.66817 1.99498 9.36252C0.84166 8.98762 -0.074973 8.78941 0.00484519 8.15272C0.0464194 7.82109 0.503103 7.48193 1.3749 7.13525Z" fill="currentColor"/>
</svg>
