<svg width="22" height="12" viewBox="0 0 22 12" fill="none" xmlns="http://www.w3.org/2000/svg">
<path d="M21.6077 10.4357C21.5496 10.3434 21.1905 9.60256 19.4624 8.07991C17.6532 6.48548 17.8962 6.74438 20.0753 3.98746C21.4025 2.30844 21.933 1.28308 21.767 0.844745C21.609 0.426913 20.6329 0.537139 20.6329 0.537139L17.3873 0.555082C17.3873 0.555082 17.1469 0.524322 16.9674 0.625575C16.7932 0.725548 16.6812 0.956253 16.6812 0.956253C16.6812 0.956253 16.1668 2.25589 15.4809 3.36071C14.035 5.69211 13.4558 5.81516 13.2195 5.67032C12.67 5.33324 12.8077 4.31429 12.8077 3.59142C12.8077 1.33179 13.1682 0.389744 12.1043 0.146222C11.7506 0.065475 11.4914 0.0116438 10.5882 0.00267196C9.42977 -0.00886329 8.44825 0.00651705 7.89336 0.264138C7.52343 0.435885 7.23856 0.819111 7.41273 0.8409C7.62739 0.867816 8.11343 0.965225 8.3713 1.29847C8.70477 1.72783 8.69262 2.69423 8.69262 2.69423C8.69262 2.69423 8.88433 5.35375 8.24574 5.68442C7.80695 5.91128 7.20616 5.44859 5.91682 3.33251C5.25662 2.24948 4.75708 1.0511 4.75708 1.0511C4.75708 1.0511 4.66122 0.828083 4.48976 0.708886C4.28185 0.564054 3.99022 0.517913 3.99022 0.517913L0.903898 0.535857C0.903898 0.535857 0.440814 0.548674 0.270702 0.739646C0.119491 0.910112 0.258551 1.2613 0.258551 1.2613C0.258551 1.2613 2.67523 6.62775 5.41053 9.33341C7.92036 11.8135 10.7691 11.6507 10.7691 11.6507H12.0598C12.0598 11.6507 12.4499 11.6097 12.6484 11.4059C12.832 11.2188 12.8253 10.8676 12.8253 10.8676C12.8253 10.8676 12.7996 9.22318 13.6043 8.98094C14.3968 8.74255 15.4148 10.5702 16.4935 11.2739C17.309 11.8058 17.9286 11.6892 17.9286 11.6892L20.8138 11.6507C20.8138 11.6507 22.3232 11.5623 21.6077 10.4357Z" fill="white"/>
</svg>
